<svg xmlns="http://www.w3.org/2000/svg" id="Layer_1" height="512" viewBox="0 0 512 512" width="512" data-name="Layer 1"><path d="m153.845 187.588v4.406a5.972 5.972 0 0 0 5.972 5.972h20.723a5.971 5.971 0 0 1 5.971 5.971v37.563a5.971 5.971 0 0 1 -5.971 5.971h-20.691a5.971 5.971 0 0 0 -5.971 5.971v4.287a5.971 5.971 0 0 0 5.971 5.972h36.061a5.972 5.972 0 0 0 5.972-5.972v-70.141a5.972 5.972 0 0 0 -5.972-5.972h-36.093a5.972 5.972 0 0 0 -5.972 5.972zm16.262-42.7v-9.516a3.5 3.5 0 0 0 -3.5-3.5h-25.934a3.5 3.5 0 0 1 -3.5-3.5v-25.7a3.5 3.5 0 0 0 -3.5-3.5h-9.527a3.5 3.5 0 0 0 -3.5 3.5v25.838a3.5 3.5 0 0 1 -3.5 3.5h-9.179a3.5 3.5 0 0 0 -3.5 3.5v25.768a3.5 3.5 0 0 0 3.5 3.5h9.353a3.5 3.5 0 0 0 3.5-3.5v-9.222a3.5 3.5 0 0 1 3.5-3.5h25.832a3.5 3.5 0 0 1 3.5 3.5v9.178a3.5 3.5 0 0 0 3.5 3.5h25.92a3.5 3.5 0 0 0 3.5-3.5v-9.334a3.5 3.5 0 0 0 -3.5-3.5h-9.462a3.5 3.5 0 0 1 -3.503-3.508zm-.032-117.58v-5.083a5.582 5.582 0 0 0 -5.582-5.582h-5.022a5.582 5.582 0 0 0 -5.582 5.582v21.785a5.582 5.582 0 0 0 5.582 5.582h21.729a5.582 5.582 0 0 1 5.582 5.582v5.055a5.582 5.582 0 0 0 5.582 5.582h5.349a5.582 5.582 0 0 0 5.582-5.582v-5.24a5.582 5.582 0 0 1 5.582-5.582h5.109a5.582 5.582 0 0 0 5.582-5.582v-5.348a5.582 5.582 0 0 0 -5.582-5.582h-38.33a5.583 5.583 0 0 1 -5.581-5.583zm-16.175 75.086v9.429a3.5 3.5 0 0 0 3.5 3.5h40.975a3.5 3.5 0 0 0 3.5-3.5v-9.429a3.5 3.5 0 0 0 -3.5-3.5h-40.975a3.5 3.5 0 0 0 -3.5 3.5zm0-30.729v5.011a5.583 5.583 0 0 0 5.583 5.582h5.011a5.582 5.582 0 0 0 5.582-5.582v-5.011a5.582 5.582 0 0 0 -5.582-5.582h-5.011a5.583 5.583 0 0 0 -5.583 5.582zm-65.986 30.947v9.146a3.5 3.5 0 0 0 3.5 3.5h9.19a3.5 3.5 0 0 0 3.5-3.5v-9.146a3.5 3.5 0 0 0 -3.5-3.5h-9.19a3.5 3.5 0 0 0 -3.5 3.5zm65.909 117.914v4.222a5.971 5.971 0 0 0 5.972 5.971h4.319a5.971 5.971 0 0 0 5.972-5.971v-4.222a5.971 5.971 0 0 0 -5.972-5.971h-4.319a5.971 5.971 0 0 0 -5.972 5.971z"></path><path d="m54.759 5.582v71.3a5.582 5.582 0 0 0 5.582 5.582h71.3a5.582 5.582 0 0 0 5.582-5.582v-71.3a5.582 5.582 0 0 0 -5.581-5.582h-71.3a5.582 5.582 0 0 0 -5.583 5.582zm60.25 60.185h-37.992a5.582 5.582 0 0 1 -5.582-5.582v-38a5.582 5.582 0 0 1 5.582-5.585h37.992a5.582 5.582 0 0 1 5.582 5.582v38a5.582 5.582 0 0 1 -5.582 5.585z"></path><path d="m236.179 5.582v50.84a5.583 5.583 0 0 0 5.583 5.578h5.511a5.582 5.582 0 0 0 5.582-5.582v-34.225a5.583 5.583 0 0 1 5.582-5.583h37.993a5.583 5.583 0 0 1 5.582 5.583v34.229a5.582 5.582 0 0 0 5.582 5.578h5.468a5.582 5.582 0 0 0 5.582-5.582v-50.836a5.582 5.582 0 0 0 -5.582-5.582h-71.3a5.583 5.583 0 0 0 -5.583 5.582z"></path><path d="m54.759 187.392v70.533a5.971 5.971 0 0 0 5.971 5.975h70.348a5.972 5.972 0 0 0 5.972-5.972v-70.536a5.971 5.971 0 0 0 -5.972-5.971h-70.348a5.971 5.971 0 0 0 -5.971 5.971zm59.883 59.872h-37.214a5.971 5.971 0 0 1 -5.972-5.971v-37.225a5.972 5.972 0 0 1 5.972-5.972h37.214a5.971 5.971 0 0 1 5.971 5.972v37.225a5.971 5.971 0 0 1 -5.971 5.971z"></path><path d="m58.262 98.959h9.452a3.5 3.5 0 0 1 3.5 3.5v25.914a3.5 3.5 0 0 0 3.5 3.5h9.331a3.5 3.5 0 0 1 3.5 3.5v9.527a3.5 3.5 0 0 1 -3.5 3.5h-9.23a3.5 3.5 0 0 0 -3.5 3.5v9.517a3.5 3.5 0 0 1 -3.5 3.5h-9.553a3.5 3.5 0 0 1 -3.5-3.5v-58.954a3.5 3.5 0 0 1 3.5-3.504z"></path><rect height="16.322" rx="5.582" width="32.986" x="186.703"></rect><path d="m201.882 187.588v70.141a5.972 5.972 0 0 1 -5.972 5.972h-36.061a5.971 5.971 0 0 1 -5.971-5.972v-4.287a5.971 5.971 0 0 1 5.971-5.971h20.691a5.971 5.971 0 0 0 5.971-5.971v-37.563a5.971 5.971 0 0 0 -5.971-5.971h-20.723a5.972 5.972 0 0 1 -5.972-5.972v-4.406a5.972 5.972 0 0 1 5.972-5.972h36.093a5.972 5.972 0 0 1 5.972 5.972z"></path><path d="m153.652 161.241v-9.176a3.5 3.5 0 0 0 -3.5-3.5h-25.84a3.5 3.5 0 0 0 -3.5 3.5v9.215a3.5 3.5 0 0 1 -3.5 3.5h-9.357a3.5 3.5 0 0 1 -3.5-3.5v-25.766a3.5 3.5 0 0 1 3.5-3.5h9.188a3.5 3.5 0 0 0 3.5-3.5v-25.85a3.5 3.5 0 0 1 3.5-3.5h9.525a3.5 3.5 0 0 1 3.5 3.5v25.7a3.5 3.5 0 0 0 3.5 3.5h25.932a3.5 3.5 0 0 1 3.5 3.5v9.536a3.5 3.5 0 0 0 3.5 3.5h9.461a3.5 3.5 0 0 1 3.5 3.5v9.338a3.5 3.5 0 0 1 -3.5 3.5h-25.906a3.5 3.5 0 0 1 -3.503-3.497z"></path><path d="m219.568 38.48v5.346a5.582 5.582 0 0 1 -5.582 5.582h-5.1a5.582 5.582 0 0 0 -5.586 5.582v5.237a5.582 5.582 0 0 1 -5.582 5.582h-5.354a5.583 5.583 0 0 1 -5.583-5.582v-5.048a5.583 5.583 0 0 0 -5.581-5.579h-21.729a5.583 5.583 0 0 1 -5.583-5.582v-21.796a5.583 5.583 0 0 1 5.583-5.582h5.019a5.582 5.582 0 0 1 5.582 5.582v5.094a5.582 5.582 0 0 0 5.582 5.582h38.332a5.582 5.582 0 0 1 5.582 5.582z"></path><rect height="16.437" rx="3.504" width="47.982" x="153.899" y="98.89"></rect><rect height="16.174" rx="5.582" width="16.172" x="153.9" y="66.086"></rect><rect height="16.157" rx="3.504" width="16.203" x="87.912" y="99.104"></rect><rect height="16.158" rx="5.971" width="16.264" x="153.823" y="214.557"></rect><path d="m87.871 38.673v5.076a5.582 5.582 0 0 0 5.582 5.582h5.022a5.582 5.582 0 0 0 5.582-5.582v-5.076a5.583 5.583 0 0 0 -5.582-5.583h-5.022a5.583 5.583 0 0 0 -5.582 5.583z"></path><rect height="16.232" rx="5.582" width="16.186" x="87.875" y="33.094"></rect><rect height="16.174" rx="5.582" width="16.181" x="269.347" y="33.104"></rect><rect height="16.081" rx="5.971" width="16.264" x="87.918" y="214.627"></rect><path d="m424.162 84.5h-163.912a33.079 33.079 0 0 0 -33.08 33.08v361.34a33.08 33.08 0 0 0 33.08 33.08h163.912a33.081 33.081 0 0 0 33.08-33.08v-361.339a33.08 33.08 0 0 0 -33.08-33.081zm-71.642 406.439h-20.627a8 8 0 0 1 0-16h20.627a8 8 0 0 1 0 16zm32.164-365.664h-84.956a8 8 0 0 1 0-16h84.956a8 8 0 0 1 0 16z"></path></svg>